<svg xmlns="http://www.w3.org/2000/svg" viewBox="0 0 32 32" width="32" height="32">
  <!-- WhatsApp green background -->
  <rect width="32" height="32" rx="6" fill="#25D366"/>
  
  <!-- Chat bubble with tail -->
  <path d="M8 8h12c2.2 0 4 1.8 4 4v6l4 4-4-4v-6c0-3.3-2.7-6-6-6H8c-3.3 0-6 2.7-6 6v8c0 3.3 2.7 6 6 6h2l2 2-2-2H8c-2.2 0-4-1.8-4-4V8z" fill="white"/>
  
  <!-- Phone icon dots -->
  <circle cx="12" cy="14" r="1.5" fill="#25D366"/>
  <circle cx="16" cy="14" r="1.5" fill="#25D366"/>
  <circle cx="20" cy="14" r="1.5" fill="#25D366"/>
  <circle cx="12" cy="18" r="1.5" fill="#25D366"/>
  <circle cx="16" cy="18" r="1.5" fill="#25D366"/>
  <circle cx="20" cy="18" r="1.5" fill="#25D366"/>
</svg>
